<?xml version="1.0" encoding="UTF-8" standalone="no"?>
<svg
   width="30"
   height="30"
   version="1.1"
   id="svg1"
   xml:space="preserve"
   xmlns="http://www.w3.org/2000/svg"
   xmlns:svg="http://www.w3.org/2000/svg"><defs
     id="defs1" /><path
     style="fill:#000000"
     d="m 16.288769,27.469017 c -1.561038,-0.09956 -2.88945,-0.451398 -4.23721,-1.12226 -1.273223,-0.633762 -2.3544881,-1.458202 -3.3220851,-2.533017 -0.238695,-0.265144 -0.367806,-0.424413 -0.520802,-0.642451 -1.232028,-1.755784 -1.760146,-4.149882 -1.39618,-6.329247 0.196271,-1.175236 0.686233,-2.404637 1.354641,-3.399034 0.865665,-1.287857 1.9938271,-2.285162 3.3025971,-2.919522 0.752409,-0.364693 1.553151,-0.6236244 2.363126,-0.7641513 0.508551,-0.088231 0.71418,-0.1071732 1.303288,-0.120055 0.969729,-0.021205 1.689761,0.066238 2.546353,0.3092375 1.204775,0.3417718 2.224938,0.9240018 2.988478,1.7055908 0.881694,0.902534 1.31575,1.955695 1.276277,3.096662 -0.02047,0.591565 -0.137854,1.063109 -0.386422,1.552226 -0.306012,0.602155 -0.811926,1.091351 -1.312729,1.269352 -0.19736,0.07015 -0.464215,0.08321 -0.637955,0.03122 -0.152161,-0.04553 -0.324527,-0.151871 -0.413787,-0.255282 -0.179071,-0.207462 -0.207004,-0.409758 -0.112558,-0.815186 0.04684,-0.201074 0.05587,-0.272189 0.04676,-0.368148 -0.03001,-0.315942 -0.245165,-0.479663 -0.485405,-0.369364 -0.04165,0.01912 -0.175854,0.131854 -0.29824,0.250518 -0.29922,0.290123 -0.408011,0.336436 -0.587895,0.250272 -0.172444,-0.0826 -0.254084,-0.275936 -0.282725,-0.669537 -0.03014,-0.414275 -0.09708,-0.55834 -0.307892,-0.662659 -0.101022,-0.04999 -0.126458,-0.05465 -0.286075,-0.05242 -0.327619,0.0046 -0.494173,0.09989 -0.919639,0.52624 -0.156745,0.157073 -0.332774,0.321191 -0.391174,0.364707 -0.231067,0.172176 -0.445144,0.198594 -0.833636,0.102874 -0.357365,-0.08805 -0.534732,-0.06755 -0.866386,0.100142 -0.351573,0.177763 -0.686101,0.439497 -1.075829,0.841727 -0.562571,0.580616 -0.930181,1.195075 -1.169725,1.955191 -0.405031,1.285234 -0.227391,2.766699 0.486381,4.056268 0.85635,1.547162 2.296139,2.618569 4.188717,3.116996 0.941136,0.247857 2.127537,0.308396 3.193058,0.162933 1.328829,-0.181409 2.638483,-0.641925 3.966784,-1.394848 0.172035,-0.09752 0.369534,-0.213944 0.438888,-0.258732 0.06935,-0.04479 0.129141,-0.07841 0.132861,-0.07473 0.01186,0.01177 -0.158437,0.257352 -0.311114,0.448647 -0.652441,0.817472 -1.739827,1.519926 -3.064463,1.979649 -0.947,0.328663 -1.858786,0.523295 -2.851607,0.608712 -0.289744,0.02493 -1.249461,0.03852 -1.516675,0.02148 z m 4.137903,-7.28246 c -0.539128,-0.141512 -0.865278,-0.672665 -0.698631,-1.137761 0.09919,-0.276833 0.310609,-0.458154 0.836543,-0.717454 0.411884,-0.203069 0.586401,-0.303097 0.775323,-0.444389 0.743855,-0.556317 1.209789,-1.441781 1.379089,-2.620831 0.01513,-0.105386 0.03021,-0.194326 0.0335,-0.197646 0.01404,-0.01416 0.130725,0.186956 0.173327,0.298735 0.178017,0.46708 0.16824,1.510959 -0.02161,2.307205 -0.271011,1.136641 -0.948762,2.136071 -1.645476,2.426464 -0.262405,0.109371 -0.606723,0.144825 -0.832064,0.08568 z"
     id="path1" /></svg>
