<?xml version="1.0" encoding="UTF-8" standalone="no"?>
<!-- Created with Inkscape (http://www.inkscape.org/) -->

<svg
   width="300"
   height="100"
   viewBox="0 0 79.374998 26.458333"
   version="1.1"
   id="svg1"
   xml:space="preserve"
   xmlns="http://www.w3.org/2000/svg"
   xmlns:svg="http://www.w3.org/2000/svg"><defs
     id="defs1" /><g
     id="layer1"><path
       style="fill:#000000"
       d="m 15.0377,20.061993 c -1.450531,-0.330161 -2.35055,-1.179893 -2.781223,-2.625828 -0.171066,-0.574338 -0.259732,-6.583786 -0.09998,-6.776276 0.08169,-0.09843 0.354141,-0.124057 1.318645,-0.124057 1.191598,0 1.216534,0.0038 1.258449,0.1905 0.02352,0.104775 0.05282,1.54305 0.06511,3.196166 0.02199,2.956424 0.02555,3.011667 0.217839,3.371905 0.229012,0.429043 0.575048,0.607493 1.177626,0.607297 0.545607,-1.77e-4 0.946088,-0.219158 1.161076,-0.634868 0.166109,-0.321197 0.176489,-0.497936 0.20123,-3.426254 0.01707,-2.020664 0.05723,-3.125107 0.116201,-3.196167 0.122947,-0.148142 2.360389,-0.154369 2.507779,-0.007 0.167568,0.167568 0.140152,5.644534 -0.03246,6.484802 -0.303365,1.476758 -1.041969,2.354083 -2.37044,2.815648 -0.669038,0.232451 -1.999158,0.292703 -2.739854,0.124111 z M 8.2763214,19.916896 c -0.077175,-0.07717 -0.1016,-1.59408 -0.1016,-6.309762 V 7.3989719 l 0.2171785,-0.08257 c 0.1194481,-0.04541 0.6528481,-0.08257 1.1853333,-0.08257 0.8552658,0 0.9878998,0.01975 1.1374888,0.169333 0.16615,0.166151 0.169333,0.282222 0.169333,6.1751551 0,3.697362 -0.03174,6.089298 -0.08257,6.223 l -0.08257,0.217178 H 9.548417 c -0.7974966,0 -1.2028722,-0.03238 -1.2720956,-0.1016 z M 21.502847,19.808221 c -0.12308,-0.187845 -0.133657,-0.564914 -0.09915,-3.534833 0.0324,-2.788687 0.06124,-3.394854 0.178949,-3.760672 0.306089,-0.9513 1.007059,-1.650323 1.946297,-1.940894 0.239863,-0.0742 0.855214,-0.155533 1.367447,-0.180728 1.047786,-0.05154 1.744717,0.07802 2.405053,0.447089 l 0.379138,0.211904 0.470571,-0.249646 c 0.258814,-0.137306 0.710774,-0.29648 1.004354,-0.353719 0.657752,-0.128244 2.085782,-0.06139 2.696836,0.126245 0.913301,0.280452 1.647347,1.012084 1.945643,1.939244 0.117893,0.366436 0.146682,0.971013 0.179098,3.761177 0.0345,2.969919 0.02393,3.346988 -0.09915,3.534833 -0.135269,0.206446 -0.158248,0.210275 -1.261893,0.210275 -0.761422,0 -1.156895,-0.03278 -1.225714,-0.1016 -0.07512,-0.07512 -0.102561,-0.897001 -0.105288,-3.153833 -0.002,-1.678728 -0.03576,-3.218259 -0.07496,-3.421179 -0.114316,-0.591725 -0.317953,-0.731721 -1.064348,-0.731721 -0.746396,0 -0.950033,0.139996 -1.064349,0.731721 -0.0392,0.20292 -0.07294,1.742451 -0.07496,3.421179 -0.0027,2.256832 -0.03016,3.07871 -0.105287,3.153833 -0.14106,0.14106 -2.280407,0.14106 -2.421467,0 -0.07512,-0.07512 -0.102561,-0.897001 -0.105287,-3.153833 -0.002,-1.678728 -0.03576,-3.218259 -0.07496,-3.421179 -0.114316,-0.591725 -0.317952,-0.731721 -1.064348,-0.731721 -0.731112,0 -0.933604,0.130703 -1.062347,0.685719 -0.04214,0.181655 -0.07752,1.722836 -0.07863,3.424848 -0.0015,2.291676 -0.02838,3.120927 -0.10362,3.196166 -0.06882,0.06882 -0.464292,0.1016 -1.225715,0.1016 -1.103644,0 -1.126624,-0.0038 -1.261893,-0.210275 z m 13.866808,0.108675 c -0.146561,-0.146561 -0.146561,-9.132905 0,-9.279466 0.06906,-0.06906 0.47037,-0.1016 1.253067,-0.1016 0.782696,0 1.184005,0.03254 1.253066,0.1016 0.146561,0.146561 0.146561,9.132905 0,9.279466 -0.06906,0.06906 -0.47037,0.1016 -1.253066,0.1016 -0.782697,0 -1.184006,-0.03254 -1.253067,-0.1016 z M 35.316435,9.3021149 c -0.168238,-0.168238 -0.19439,-1.803743 -0.03145,-1.966685 0.06985,-0.06985 0.492286,-0.1016 1.351688,-0.1016 1.489773,0 1.425379,-0.05111 1.425379,1.131386 0,1.094737 0.03335,1.069947 -1.439333,1.069947 -0.953692,0 -1.198136,-0.0249 -1.306286,-0.133048 z"
       id="path1" /><path
       style="fill:#e47058;fill-opacity:1"
       d="m 51.747821,20.253259 c -1.070586,-0.300165 -1.853527,-0.920619 -2.314804,-1.834406 -0.391605,-0.775763 -0.498939,-1.39221 -0.500343,-2.873599 -0.0019,-1.97171 0.281923,-2.904676 1.146564,-3.769316 0.429184,-0.429185 1.165116,-0.81823 1.825928,-0.965264 0.720753,-0.160371 2.278075,-0.07088 2.8751,0.165217 1.002258,0.396348 1.755286,1.203037 2.126997,2.278564 0.177637,0.513985 0.194492,0.709503 0.194492,2.256088 0,1.518363 -0.01961,1.755704 -0.189832,2.296946 -0.347502,1.104954 -1.101948,1.898372 -2.214254,2.328633 -0.620351,0.239964 -2.277115,0.305752 -2.949848,0.117137 z m 2.010922,-2.229602 c 0.480471,-0.250623 0.732159,-0.846485 0.801607,-1.897768 0.06771,-1.025022 -0.04463,-2.057654 -0.271398,-2.494627 -0.24731,-0.476552 -0.535154,-0.648069 -1.146275,-0.683025 -0.717989,-0.04107 -1.043553,0.138088 -1.358704,0.747692 -0.237717,0.459823 -0.237774,0.460351 -0.211666,1.941614 0.02467,1.39982 0.03781,1.502249 0.237782,1.854247 0.121021,0.213023 0.338005,0.439637 0.506679,0.529167 0.38214,0.202832 1.055886,0.204094 1.441975,0.0027 z m 7.112732,2.224812 C 59.99487,20.002843 59.194972,19.3864 58.833535,18.677923 58.393274,17.81494 58.385894,17.747937 58.351154,14.298142 c -0.02438,-2.420767 -0.0072,-3.275143 0.06783,-3.365499 0.07756,-0.09346 0.34453,-0.120804 1.169636,-0.119804 0.588024,7.14e-4 1.113745,0.02967 1.168271,0.06436 0.07187,0.04571 0.106802,0.901249 0.127,3.110204 0.02605,2.848492 0.0389,3.068863 0.197196,3.380344 0.09313,0.183262 0.266825,0.404337 0.385981,0.491281 0.254201,0.185477 0.999579,0.280184 1.552537,0.197264 l 0.389815,-0.05846 v -3.491546 c 0,-2.602757 0.02586,-3.517408 0.1016,-3.593145 0.14106,-0.14106 2.280407,-0.14106 2.421467,0 0.07573,0.07573 0.1016,0.989189 0.1016,3.58775 v 3.486149 l 0.264583,0.05292 c 0.914458,0.182893 1.719967,-0.05749 1.985506,-0.592509 0.150074,-0.302376 0.164898,-0.568106 0.188137,-3.372455 0.01665,-2.009625 0.05614,-3.08147 0.1162,-3.153834 0.06614,-0.07969 0.399396,-0.109617 1.220629,-0.109617 1.030203,0 1.13737,0.01442 1.217299,0.163767 0.111211,0.2078 0.117229,5.028818 0.0075,5.983248 -0.188895,1.642549 -0.903339,2.680613 -2.18192,3.170255 -0.946706,0.362548 -2.798922,0.312138 -3.762547,-0.102403 l -0.398903,-0.171603 -0.577059,0.233099 c -0.506205,0.204478 -0.712207,0.236622 -1.677727,0.261783 -0.805465,0.02099 -1.225008,-0.0062 -1.56428,-0.10122 z M 39.364089,20.2325 c -0.06985,-0.02659 -0.154992,-0.09026 -0.189204,-0.141483 -0.104001,-0.155723 -0.07748,-10.2259979 0.02828,-10.7358049 0.188583,-0.909095 0.719803,-1.503043 1.627541,-1.819727 0.35656,-0.124393 0.675439,-0.150275 1.708387,-0.138658 0.6985,0.0079 1.3843,0.0487 1.524,0.09076 l 0.254,0.07648 v 0.840575 0.840575 l -1.110866,0.02355 c -1.357362,0.02877 -1.406862,0.06125 -1.457439,0.9563389 l -0.03314,0.586448 h 1.220288 c 0.836223,0 1.252264,0.03198 1.321887,0.1016 0.137835,0.137833 0.137835,1.606299 0,1.744132 -0.06955,0.06955 -0.483541,0.1016 -1.312333,0.1016 h -1.210734 v 3.680021 c 0,3.551678 -0.0057,3.683079 -0.163768,3.767668 -0.169069,0.09048 -1.981382,0.111779 -2.206899,0.02593 z m 5.926667,-0.107624 c -0.166168,-0.166167 -0.169334,-0.282221 -0.169334,-6.206817 0,-4.7177669 0.02329,-6.0693339 0.106542,-6.1831899 0.09353,-0.127909 0.251229,-0.142811 1.291167,-0.122016 l 1.184625,0.02369 0.02198,6.2230009 c 0.0204,5.775227 0.01162,6.230615 -0.122015,6.328834 -0.09601,0.07056 -0.477201,0.105832 -1.143813,0.105832 -0.886929,0 -1.018937,-0.01912 -1.169151,-0.169333 z"
       id="path1-5" /></g></svg>
